<?xml version="1.0" standalone="no"?>
<!DOCTYPE svg PUBLIC "-//W3C//DTD SVG 20010904//EN"
 "http://www.w3.org/TR/2001/REC-SVG-20010904/DTD/svg10.dtd">
<svg version="1.0" xmlns="http://www.w3.org/2000/svg"
 width="512.000000pt" height="512.000000pt" viewBox="0 0 512.000000 512.000000"
 preserveAspectRatio="xMidYMid meet">
<metadata>
Created by potrace 1.11, written by Peter Selinger 2001-2013
</metadata>
<g transform="translate(0.000000,512.000000) scale(0.100000,-0.100000)"
fill="#000000" stroke="none">
<path d="M175 4593 c-58 -17 -110 -59 -145 -117 l-25 -41 -3 -1856 c-2 -2028
-6 -1898 55 -1974 15 -19 50 -47 78 -62 l50 -28 2160 0 2160 0 49 25 c55 28
91 67 118 128 16 35 20 68 20 175 1 202 4 186 -41 182 l-39 -3 -4 61 c-2 34
-2 85 0 113 3 44 7 52 34 68 47 29 209 194 253 261 22 33 43 62 46 65 25 20
122 253 148 356 29 112 35 369 12 489 -48 241 -162 458 -331 625 l-75 75 -1
625 c-1 344 -4 638 -7 653 -9 45 -53 111 -93 142 -75 57 37 55 -2253 54 -1861
-1 -2122 -2 -2166 -16z"/>
</g>
</svg>
